<svg width="14" height="9" viewBox="0 0 14 9" fill="none" xmlns="http://www.w3.org/2000/svg">
<path d="M13.4062 4.17188C12.1406 1.6875 9.60938 0 6.75 0C3.86719 0 1.33594 1.6875 0.0703125 4.17188C0.0234375 4.26562 0 4.38281 0 4.5C0 4.64062 0.0234375 4.75781 0.0703125 4.85156C1.33594 7.33594 3.86719 9 6.75 9C9.60938 9 12.1406 7.33594 13.4062 4.85156C13.4531 4.75781 13.4766 4.64062 13.4766 4.52344C13.4766 4.38281 13.4531 4.26562 13.4062 4.17188ZM6.75 7.875C4.875 7.875 3.375 6.375 3.375 4.5C3.375 2.64844 4.875 1.125 6.75 1.125C8.60156 1.125 10.125 2.64844 10.125 4.5V4.52344C10.125 6.375 8.60156 7.89844 6.75 7.89844V7.875ZM6.75 2.25C6.53906 2.27344 6.32812 2.29688 6.14062 2.34375C6.28125 2.53125 6.35156 2.76562 6.35156 3.02344C6.35156 3.63281 5.85938 4.125 5.25 4.125C4.99219 4.125 4.75781 4.05469 4.57031 3.91406C4.52344 4.10156 4.5 4.3125 4.5 4.5C4.5 5.74219 5.50781 6.75 6.75 6.75C7.99219 6.75 9 5.74219 9 4.5C9 3.25781 7.99219 2.27344 6.75 2.27344V2.25Z" fill="#868E96"/>
</svg>
